<svg width="1693" height="471" viewBox="0 0 1693 471" fill="none" xmlns="http://www.w3.org/2000/svg">
<g clip-path="url(#clip0_133_474)">
<path d="M442.996 95.3413C475.809 95.3195 507.719 106.144 533.81 126.148C559.9 146.153 578.72 174.228 587.367 206.046C596.015 237.866 594.009 271.659 581.658 302.218C574.064 321.007 562.82 337.931 548.714 352.073C535.263 365.557 513.182 360.216 503.069 342.974C493.192 326.131 499.778 304.116 510.458 286.205L510.459 286.206C512.265 283.178 513.873 280.018 515.269 276.748L515.854 275.339C522.335 259.3 523.389 241.565 518.85 224.866C514.311 208.165 504.432 193.427 490.733 182.923C477.035 172.419 460.277 166.735 443.043 166.747C425.808 166.758 409.058 172.466 395.373 182.988C381.688 193.51 371.828 208.263 367.312 224.968C362.797 241.673 363.874 259.408 370.378 275.439C371.908 279.21 373.719 282.837 375.786 286.294C386.49 304.192 393.106 326.2 383.252 343.055C373.163 360.31 351.089 365.68 337.62 352.214C323.495 338.092 312.227 321.183 304.608 302.406C292.217 271.863 290.164 238.071 298.77 206.241C307.374 174.41 326.159 146.311 352.222 126.272C378.285 106.232 410.183 95.3635 442.996 95.3413ZM443.096 220.185C457.225 220.185 468.68 231.637 468.681 245.763C468.681 259.889 457.226 271.341 443.096 271.341C428.965 271.341 417.513 259.889 417.512 245.763C417.512 231.638 428.965 220.185 443.096 220.185Z" stroke="white" stroke-width="5"/>
<path d="M1316.34 98.6119C1335.75 98.6119 1352.27 102.493 1365.67 110.531C1379.14 118.61 1389.13 130.854 1395.72 146.983V146.984C1402.28 163.038 1405.45 182.63 1405.45 205.614V326.225C1405.45 344.729 1390.46 359.728 1371.95 359.729C1353.44 359.729 1338.44 344.728 1338.44 326.225V209.383C1338.44 197.171 1336.75 187.424 1333.59 179.959L1333.58 179.944L1333.58 179.94L1333.57 179.891L1333.54 179.826C1330.71 172.498 1326.32 167.379 1320.41 164.153L1320.29 164.081L1320.14 163.997C1314.41 160.465 1306.94 158.552 1297.5 158.552C1290.4 158.552 1283.6 159.786 1277.07 162.254L1276.44 162.497L1276.37 162.523L1276.34 162.535L1276.31 162.547L1276.29 162.554C1269.97 164.86 1264.56 168.29 1260 172.842L1259.94 172.898L1259.9 172.945C1255.28 177.268 1251.69 182.297 1249.1 188.057C1246.54 193.735 1245.24 200.038 1245.24 207.027V326.225C1245.24 344.728 1230.24 359.728 1211.72 359.729C1193.22 359.729 1178.21 344.728 1178.21 326.225V208.913C1178.21 197.357 1176.54 188.098 1173.4 180.96L1173.37 180.89L1173.34 180.824L1173.33 180.804C1170.18 173.403 1165.72 168.064 1160.02 164.528L1159.96 164.487L1159.93 164.467L1159.8 164.384C1154.05 160.568 1146.92 158.552 1138.22 158.552C1130.89 158.552 1124.06 159.867 1117.69 162.472L1117.62 162.504L1117.52 162.539C1111.13 164.866 1105.67 168.183 1101.1 172.467H1101.1C1096.49 176.791 1092.89 181.821 1090.3 187.587C1087.74 193.264 1086.43 199.567 1086.43 206.556V326.225C1086.43 344.728 1071.43 359.729 1052.92 359.729C1034.42 359.729 1019.41 344.728 1019.41 326.225V135.919C1019.41 117.657 1034.22 102.852 1052.49 102.852C1067.55 102.852 1080.3 112.936 1084.27 126.773L1085.44 130.847L1088.44 127.852C1092.77 123.528 1097.57 119.674 1102.84 116.297L1102.87 116.279L1102.89 116.261C1111.01 110.753 1119.63 106.521 1128.75 103.577L1128.78 103.565L1128.82 103.553C1138.05 100.265 1147.47 98.612 1157.06 98.6119C1171.01 98.6119 1183.52 100.878 1194.5 105.523L1194.54 105.539L1194.58 105.553C1205.89 109.911 1215.26 116.938 1222.6 126.582L1222.61 126.601L1222.63 126.622C1225.55 130.302 1228.16 134.348 1230.49 138.75L1232.28 142.15L1234.66 139.13C1236.8 136.41 1239.17 133.818 1241.76 131.359L1241.78 131.338L1241.8 131.316C1248.29 124.844 1255.58 119.181 1263.65 114.333L1263.68 114.315L1263.71 114.297C1271.85 109.106 1280.34 105.188 1289.17 102.566L1289.19 102.562L1289.23 102.551L1289.26 102.543C1298.4 99.9307 1307.43 98.6119 1316.34 98.6119Z" stroke="white" stroke-width="5"/>
<path d="M859.274 97.1989C876.176 97.1989 892.012 100.453 906.728 106.992C921.373 113.499 934.098 122.465 944.866 133.881L944.877 133.894L944.889 133.906C955.648 145.01 963.773 158.355 969.292 173.87L969.3 173.89L969.308 173.91L969.855 175.366V175.367C975.349 190.288 977.914 206.518 977.607 224.01L977.605 224.051V224.129C977.268 237.705 966.163 248.541 952.574 248.541H794.705L795.479 251.645C797.037 257.894 799.288 263.667 802.215 268.974L802.229 268.999L802.243 269.022C808.73 280.196 817.682 288.858 829.167 295.063L829.203 295.083L829.24 295.101C841.09 301.006 854.989 304.028 871.056 304.028C882.209 304.028 892.357 302.221 901.547 298.664L901.548 298.665C904.053 297.696 906.637 296.507 909.298 295.09L910.443 294.469C924.637 286.64 943.917 287.925 954.061 302.057V302.058C962.547 313.88 961.371 331.124 948.335 339.519C944.455 342.019 940.397 344.358 936.166 346.533L936.148 346.542L936.133 346.548H936.135L936.122 346.555C925.167 352.031 913.578 356.375 901.365 359.588C889.092 362.816 876.944 364.441 864.929 364.441C838.235 364.441 814.418 358.808 793.598 347.424H793.597L793.571 347.41H793.572C773.152 336.068 757.046 320.633 745.338 301.134L745.277 301.027H745.276C733.871 281.151 728.218 258.572 728.218 233.411C728.218 213.471 731.436 195.183 737.939 178.604C744.408 162.113 753.332 147.813 764.733 135.762L764.734 135.763C776.469 123.38 790.335 113.922 806.287 107.412L806.298 107.407L806.309 107.402C822.064 100.797 839.14 97.4137 857.494 97.2086L859.274 97.1989ZM859.274 157.139C844.463 157.139 832.21 160.002 822.327 165.506L822.295 165.524C812.743 171.026 805.49 178.969 800.508 189.495L800.476 189.56L800.469 189.573L800.463 189.586C799.322 191.935 798.31 194.434 797.422 197.084L796.318 200.378H912.302L911.708 197.39C910.36 190.602 907.738 184.639 903.89 179.431H903.891L903.85 179.376L903.83 179.346C898.919 172.419 892.579 167.082 884.742 163.309L884.731 163.304L884.654 163.268L884.583 163.229L884.577 163.225L884.57 163.221L883.865 162.849C876.553 159.063 868.384 157.139 859.274 157.139Z" stroke="white" stroke-width="5"/>
<path d="M1571.76 97.1989C1588.13 97.1989 1603.5 100.253 1617.83 106.389L1619.21 106.992C1633.86 113.499 1646.58 122.465 1657.34 133.881L1657.35 133.894L1657.37 133.907C1668.13 145.011 1676.26 158.355 1681.78 173.869L1681.79 173.914L1682.35 175.385C1687.84 190.316 1690.4 206.558 1690.09 224.064V224.109C1689.76 237.694 1678.66 248.541 1665.05 248.541H1507.18L1507.96 251.649C1509.52 257.896 1511.78 263.666 1514.69 268.971L1514.71 268.998L1514.72 269.023C1521.22 280.196 1530.16 288.858 1541.65 295.063L1541.69 295.083L1541.72 295.101C1553.58 301.005 1567.47 304.028 1583.54 304.028C1594.69 304.028 1604.85 302.221 1614.03 298.664L1614.03 298.663C1616.9 297.555 1619.86 296.161 1622.92 294.468L1622.92 294.467C1637.12 286.638 1656.4 287.926 1666.54 302.057V302.058C1675.03 313.879 1673.85 331.124 1660.82 339.519C1656.94 342.019 1652.88 344.357 1648.64 346.533L1648.63 346.542L1648.61 346.551L1648.6 346.555C1637.65 352.03 1626.06 356.375 1613.85 359.588C1601.58 362.816 1589.43 364.441 1577.41 364.441C1550.75 364.441 1526.96 358.822 1506.16 347.47L1506.15 347.459L1506.06 347.41L1505.1 346.875C1485.12 335.579 1469.33 320.313 1457.81 301.108L1457.75 301.01C1446.35 281.138 1440.7 258.566 1440.7 233.411C1440.7 213.471 1443.92 195.184 1450.43 178.605L1450.43 178.603C1456.89 162.112 1465.81 147.813 1477.22 135.761C1488.95 123.378 1502.82 113.921 1518.77 107.411L1518.78 107.407L1518.79 107.402C1534.55 100.797 1551.62 97.4137 1569.98 97.2086L1571.76 97.1989ZM1571.76 157.139C1556.95 157.139 1544.69 160.003 1534.81 165.506L1534.79 165.515L1534.77 165.524C1525.23 171.021 1517.99 178.954 1513.01 189.463L1512.98 189.528L1512.96 189.558L1512.94 189.589C1511.81 191.935 1510.8 194.433 1509.9 197.08L1508.79 200.378H1624.78L1624.19 197.391C1622.84 190.6 1620.21 184.634 1616.38 179.427L1616.37 179.416L1616.32 179.354L1615.86 178.71C1611.01 172.092 1604.82 166.967 1597.23 163.311H1597.23L1597.15 163.27L1597.06 163.224L1597.06 163.221L1596.35 162.849C1589.04 159.063 1580.87 157.139 1571.76 157.139Z" stroke="white" stroke-width="5"/>
<path d="M126.017 97.6698C135.779 97.6699 145.239 98.8086 154.39 101.096C163.517 103.377 171.885 106.65 179.471 110.933L179.489 110.944L179.509 110.954C187.225 115.139 194.179 119.824 200.357 125.017L203.331 127.517L204.374 123.776C207.747 111.689 218.84 102.853 231.967 102.852H236.287C254.534 102.853 269.325 117.641 269.325 135.884V338.474C269.325 358.995 266.279 377.285 260.082 393.266C253.909 409.181 244.945 422.739 233.178 433.871L233.165 433.883L233.153 433.894C221.362 445.356 207.144 453.84 190.576 459.369L190.537 459.383C173.987 465.215 155.288 468.092 134.5 468.092C115.521 468.092 96.5635 465.194 77.6406 459.423L77.6133 459.415L77.5947 459.409C66.7584 456.045 57.0503 452.062 48.4961 447.438C36.4287 440.916 33.479 426.277 38.79 414.654L39.0498 414.103L40.4248 411.26C47.4176 396.801 65.3565 392.76 79.1533 398.596C87.0454 401.933 95.4096 404.522 104.253 406.351L104.262 406.352L104.27 406.354C113.422 408.183 122.398 409.092 131.2 409.092C147.424 409.092 160.554 406.487 170.793 401.516L170.801 401.512L170.81 401.508L170.864 401.479L170.917 401.457L170.925 401.454C181.378 396.809 189.127 389.618 194.32 379.81L194.319 379.809L194.333 379.788L194.346 379.764C199.561 370.203 202.304 357.93 202.304 342.715V331.664L198.129 335.428C190.292 342.495 180.984 348.428 170.255 353.25L169.213 353.713L169.182 353.725L169.165 353.733L169.13 353.747C155.746 359.296 141.993 362.085 127.901 362.085C104.023 362.085 82.6473 356.593 63.8994 345.51L63.0088 344.977L63.0068 344.976L63.0039 344.974L62.9824 344.961L62.9805 344.96C44.435 333.574 29.636 318.116 18.6084 298.659L18.6045 298.653L18.6016 298.646L18.5898 298.626L18.583 298.613L18.5762 298.599L18.5684 298.586L18.0684 297.652C7.65227 278.005 2.50003 255.612 2.5 230.584L2.50391 229.394C2.66744 204.45 7.98492 182.142 18.5684 162.582L18.5723 162.575L18.5762 162.567C29.2818 142.474 43.9298 126.672 62.5088 115.266L62.5186 115.26C81.1549 103.701 101.993 97.8535 124.924 97.6737L126.017 97.6698ZM136.855 157.14C123.45 157.14 111.871 160.404 101.961 166.815L101.938 166.831L101.926 166.838L101.919 166.843L101.901 166.852L101.885 166.863C91.9053 173.026 83.9357 181.699 77.9824 193.008L77.9756 193.019L77.9697 193.032C72.3785 203.945 69.5225 216.583 69.5225 231.055C69.5225 245.175 72.3639 257.819 77.9668 269.068L77.9854 269.107L78.0068 269.145C83.9472 280.101 91.903 288.611 101.885 294.775C111.805 300.901 123.413 304.028 136.855 304.028C150.292 304.028 161.893 300.903 171.811 294.783L171.836 294.769L171.854 294.758L171.874 294.747C182.168 288.571 190.098 280.064 195.707 269.141L195.708 269.141C201.321 258.215 204.189 245.555 204.189 231.055C204.189 216.259 201.172 203.476 195.28 192.579L195.273 192.566L195.25 192.523L195.217 192.457C189.757 181.541 182.27 173.085 172.753 166.976L171.825 166.392C161.905 160.267 150.298 157.14 136.855 157.14Z" stroke="white" stroke-width="5"/>
<path d="M655.813 2.5C674.322 2.5002 689.325 17.501 689.325 36.0039V326.226C689.325 344.728 674.322 359.729 655.813 359.729C637.305 359.729 622.301 344.728 622.301 326.226V36.0039C622.301 17.79 636.84 2.96953 654.948 2.51074L655.813 2.5Z" stroke="white" stroke-width="5"/>
</g>
<defs>
<clipPath id="clip0_133_474">
<rect width="1693" height="471" fill="white"/>
</clipPath>
</defs>
</svg>
